<?xml version="1.0" encoding="UTF-8"?>
<svg id="Layer_1" data-name="Layer 1" xmlns="http://www.w3.org/2000/svg" viewBox="0 0 425.2 425.2">
  <defs>
    <style>
      .cls-1 {
        fill: none;
        stroke: #424835;
        stroke-miterlimit: 10;
        stroke-width: 1.5px;
      }

      .cls-2 {
        fill: #424835;
      }
    </style>
  </defs>
  <g>
    <path class="cls-2" d="M211.74,223.11c.38-8.31,.69-16-.22-24-8.49-.79-15.62-3.66-20.21-10.8-2.63-4.09-4.28-8.56-3.67-14.05,11.47-.69,18.41,5.34,23.77,15.53,1.06-5.87,.48-10.77,.6-15.63,.12-4.99,.03-9.99,.03-15.27-5.23-5.94-7.91-12.92-6.54-21.03,.85-5.07,3.19-9.39,7.09-12.77,10.06,6.26,10.73,20.09,1.69,33.68v13.3c5.06-9.9,12.33-16.14,24.68-15.89-.14,2.06-.04,3.85-.42,5.54-2.28,10.06-8.33,16.42-18.55,18.59-1.75,.37-3.49,.8-5.66,1.3-.44,9.72-.17,19.14,.18,28.75,4.54-10.67,11.93-16.99,24.32-17.09,.83,5.1-.73,9.42-3.04,13.44-3.13,5.44-7.85,8.98-14.01,10.46-1.62,.39-3.28,.58-4.89,.99-2.07,.52-3.09,1.76-2.35,4.56m22.02-26.92c-10.21,.36-19.4,8.67-18.77,16.68,.02,.26,2.81-2.15,3-2.33,.86-.79,2.09-1.56,3.38-1.52,.68,2.17-3.48,5-4.67,6.52,10.19-1.76,16.89-9.5,17.07-19.35Zm-25.18-42.48s.02,.02,.03,.03c-.47-.62,.4-4.11,.47-4.95,.14-1.53,.27-3.06,.48-4.59,.08-.56,.42-1.3,.97-1.14,.29,.09,.44,.4,.52,.69,.37,1.22,.24,2.52,.2,3.79-.07,2.24,.13,4.49,.59,6.69,2.85-4.03,4.31-8.97,3.93-13.91-.18-2.32-.75-4.62-1.79-6.7-.24-.47-3.5-5.38-3.99-4.9-6.62,6.54-7.47,17.81-1.42,25Zm-21.37,23.08c.15,10.11,7.51,18.44,16.75,19.19,.17,.01-2.51-3.21-2.77-3.47-.91-.92-2.2-2.42-1.74-3.89,2.24,.39,4.96,3.71,6.68,5.21-.34-.3-.42-2.73-.57-3.29-.32-1.17-.77-2.31-1.33-3.39-1.04-2.01-2.47-3.78-4.16-5.28-3.54-3.12-8.16-4.86-12.85-5.08Zm28.9,1.68c11.45-2.39,19.35-12.21,16.68-19.66-9.81,.91-17.63,8-18.09,17.13,1.26-1.14,2.53-2.29,3.79-3.43,.51-.46,1.18-1.2,1.92-1.25,2.05-.11,.1,2.39-.39,3.03-.78,1.01-2.67,3.91-3.91,4.17Z"/>
    <line class="cls-1" x1="139.1" y1="223.11" x2="286.1" y2="223.11"/>
    <line class="cls-1" x1="169.1" y1="233.11" x2="256.1" y2="233.11"/>
    <line class="cls-1" x1="181.6" y1="242.11" x2="243.6" y2="242.11"/>
  </g>
  <g>
    <path class="cls-2" d="M107.68,257.7h3.35l13.34,35.64h-3.56l-3.29-8.96h-16.47l-3.29,8.96h-3.4l13.34-35.64Zm-5.83,24.14h14.85l-7.4-20.36-7.45,20.36Z"/>
    <path class="cls-2" d="M127.66,275.57c0-10.42,6.91-18.36,16.04-18.36,6.21,0,11.07,3.19,13.34,9.07l-2.81,1.51c-2-5.29-5.83-7.72-10.64-7.72-7.34,0-12.47,6.48-12.47,15.5,0,8.48,4.43,15.39,13.5,15.39,2.38,0,4.81-.49,6.7-1.4,2.11-1.08,2.59-2.38,2.59-4.59v-9.67h3.29v13.93c-2.54,2.81-7.56,4.59-12.53,4.59-10.91,0-17.01-8.42-17.01-18.25Z"/>
    <path class="cls-2" d="M165.94,257.7h9.02c9.07,0,13.99,3.19,13.99,9.4,0,4.91-3.19,7.99-9.07,8.64v.11c5.24,.32,7.94,2.27,7.94,8.15v3.56c0,2.65,.59,4.43,1.57,5.78h-3.46c-.92-1.13-1.46-2.81-1.46-5.62v-3.35c0-5.4-2-7.24-7.45-7.24h-7.78v16.2h-3.29v-35.64Zm3.29,2.59v14.31h5.62c7.18,0,10.64-2.38,10.64-7.18s-3.51-7.13-10.64-7.13h-5.62Z"/>
    <path class="cls-2" d="M197.43,257.7h3.29v35.64h-3.29v-35.64Z"/>
    <path class="cls-2" d="M217.89,260.34h-11.5v-2.65h26.35v2.65h-11.5v33h-3.35v-33Z"/>
    <path class="cls-2" d="M238.41,257.7h20.09v2.65h-16.79v13.28h15.5v2.65h-15.5v14.42h16.79v2.65h-20.09v-35.64Z"/>
    <path class="cls-2" d="M263.79,275.52c0-10.15,6.86-18.31,16.09-18.31,6.16,0,10.96,3.13,13.18,9.02l-2.75,1.57c-1.84-5.24-5.67-7.72-10.58-7.72-7.34,0-12.47,6.48-12.47,15.44s5.13,15.44,12.47,15.44c4.91,0,8.75-2.48,10.58-7.72l2.75,1.57c-2.21,5.89-7.02,9.02-13.18,9.02-9.23,0-16.09-8.15-16.09-18.31Z"/>
    <path class="cls-2" d="M321.79,276.6h-18.14v16.74h-3.29v-35.64h3.29v16.25h18.14v-16.25h3.29v35.64h-3.29v-16.74Z"/>
  </g>
</svg>